<svg width="208" height="53" viewBox="0 0 208 53" fill="none" xmlns="http://www.w3.org/2000/svg">
<path d="M19.9434 15.5245L0.107803 51.0193C-0.204453 51.578 0.198972 52.2673 0.838375 52.2673H8.82575C9.96537 52.2673 11.0164 51.6503 11.5731 50.6538L32.1061 13.911H22.6908C21.551 13.911 20.5003 14.5281 19.9434 15.5245Z" fill="#F5F5F5"/>
<path d="M35.1159 8.49896L39.0918 1.38437C39.4379 0.764343 38.9909 -9.53674e-07 38.2816 -9.53674e-07H30.6155C29.3017 -9.53674e-07 28.0904 0.711519 27.4487 1.85979L22.6994 10.3587H31.9491C33.2629 10.3587 34.4739 9.64753 35.1159 8.49896Z" fill="#FF4F2A"/>
<path d="M42.278 39.4139V16.4867C42.278 15.0639 41.127 13.911 39.7071 13.911H32.1061V38.0143C32.1061 39.4368 33.2571 40.59 34.6769 40.59H41.1042C41.7524 40.59 42.278 40.0635 42.278 39.4139Z" fill="#F5F5F5"/>
<path d="M56.3916 22.3636C56.3916 21.071 56.7142 20.7478 58.0044 20.7478H58.4704C59.7608 20.7478 60.0832 21.071 60.0832 22.3636V36.9412C60.0832 38.2338 59.7608 38.5571 58.4704 38.5571H58.0044C56.7142 38.5571 56.3916 38.2338 56.3916 36.9412V22.3636ZM56.6428 13.6742C57.5385 12.7766 58.9722 12.7766 59.8324 13.6742C60.7283 14.5361 60.7283 15.9722 59.8324 16.8699C58.9722 17.7317 57.5385 17.7317 56.6428 16.8699C55.7467 15.9722 55.7467 14.5361 56.6428 13.6742Z" fill="#F5F5F5"/>
<path d="M68.0398 36.9412C68.0398 38.2338 67.7172 38.557 66.427 38.557H65.9608C64.6709 38.557 64.3483 38.2338 64.3483 36.9412V27.3183C64.3483 22.6866 66.9646 20.3528 72.1614 20.3528C77.6089 20.3528 79.9385 22.6866 79.9385 27.3183V36.9412C79.9385 38.2338 79.616 38.557 78.3257 38.557H77.86C76.5696 38.557 76.247 38.2338 76.247 36.9412V27.3183C76.247 24.8767 75.3511 23.7996 72.1614 23.7996C68.9715 23.7996 68.0398 24.8767 68.0398 27.3183V36.9412Z" fill="#F5F5F5"/>
<path d="M87.1435 31.1963C87.1435 34.2124 88.0754 35.4691 91.6234 35.4691C95.1716 35.4691 96.1753 34.1766 96.1753 31.1963V28.1086C96.1753 25.0925 95.0997 23.7998 91.6234 23.7998C88.1472 23.7998 87.1435 25.0925 87.1435 28.1086V31.1963ZM99.8308 31.2683C99.8308 36.4027 96.8202 38.9522 91.6593 38.9522C86.1757 38.9522 83.452 36.4027 83.452 31.2683V28.1803C83.452 22.9739 85.9607 20.3528 90.9427 20.3528C93.4512 20.3528 95.2076 21.1428 96.1753 22.6868V15.0385C96.1753 13.7461 96.4976 13.4231 97.7878 13.4231H98.2181C99.5084 13.4231 99.8308 13.7461 99.8308 15.0385V31.2683Z" fill="#F5F5F5"/>
<path d="M107.179 31.9505C107.179 34.392 108.111 35.469 111.3 35.469C114.49 35.469 115.386 34.392 115.386 31.9505V22.3636C115.386 21.0708 115.709 20.7478 116.999 20.7478H117.465C118.755 20.7478 119.078 21.0708 119.078 22.3636V31.9505C119.078 36.5822 116.748 38.9521 111.3 38.9521C106.104 38.9521 103.487 36.6182 103.487 31.9505V22.3636C103.487 21.0708 103.81 20.7478 105.1 20.7478H105.566C106.856 20.7478 107.179 21.0708 107.179 22.3636V31.9505Z" fill="#F5F5F5"/>
<path d="M122.34 36.1154C122.34 34.8589 122.627 34.5714 123.773 34.8589C125.529 35.3257 127.25 35.5409 129.006 35.5409C131.443 35.5409 132.339 35.1459 132.339 33.9968C132.339 33.0995 131.873 32.6683 130.046 31.8426L126.174 30.1191C123.738 29.0779 122.627 27.8571 122.627 25.2361C122.627 21.8968 124.705 20.3527 129.472 20.3527C130.941 20.3527 132.339 20.5322 133.629 20.8914C134.884 21.2863 135.135 21.5017 135.135 22.6868V23.1175C135.135 24.3743 134.812 24.6615 133.665 24.3384C132.303 23.9435 130.87 23.7638 129.4 23.7638C127.071 23.7638 126.246 24.1948 126.246 25.2361C126.246 26.0975 126.676 26.4926 127.931 27.0672L132.088 28.8625C134.704 29.9756 135.923 31.2322 135.923 33.9253C135.923 37.3722 133.737 38.9521 128.683 38.9521C126.927 38.9521 125.278 38.7365 123.773 38.3416C122.591 38.0184 122.34 37.767 122.34 36.5823V36.1154Z" fill="#F5F5F5"/>
<path d="M138.003 22.5788C138.003 21.5735 138.254 21.2864 139.221 21.1068L141.121 20.7478L141.551 17.3726C141.694 16.3312 141.981 16.08 143.02 16.08H143.486C144.526 16.08 144.776 16.3312 144.776 17.3726V20.7478H149.794C150.977 20.7478 151.299 20.999 151.299 22.2558V22.6867C151.299 23.9434 150.977 24.1946 149.794 24.1946H144.776V32.3452C144.776 34.428 145.708 35.469 147.572 35.469C148.647 35.469 149.615 35.3615 150.475 35.1459C151.658 34.8945 151.944 35.1459 151.944 36.4027V36.8336C151.944 38.0185 151.658 38.3776 150.475 38.6288C149.508 38.8083 148.54 38.916 147.572 38.916C143.271 38.916 141.121 36.7261 141.121 32.3095V24.1946H139.257C138.254 24.1946 138.003 23.9434 138.003 22.9381V22.5788Z" fill="#F5F5F5"/>
<path d="M158.289 36.9412C158.289 38.2338 157.966 38.557 156.676 38.557H156.21C154.92 38.557 154.597 38.2338 154.597 36.9412V26.7082C154.597 22.4711 156.855 20.3528 161.371 20.3528C161.658 20.3528 161.909 20.3528 162.088 20.3887C163.27 20.5323 163.593 20.8195 163.593 22.0762V22.5788C163.593 23.7638 163.342 24.0151 162.088 23.8356C161.909 23.7996 161.658 23.7996 161.371 23.7996C158.969 23.7996 158.289 24.7693 158.289 26.9594V36.9412Z" fill="#F5F5F5"/>
<path d="M166.604 22.3636C166.604 21.071 166.926 20.7478 168.216 20.7478H168.683C169.973 20.7478 170.295 21.071 170.295 22.3636V36.9412C170.295 38.2338 169.973 38.5571 168.683 38.5571H168.216C166.926 38.5571 166.604 38.2338 166.604 36.9412V22.3636ZM166.854 13.6742C167.75 12.7766 169.184 12.7766 170.044 13.6742C170.94 14.5361 170.94 15.9722 170.044 16.8699C169.184 17.7317 167.75 17.7317 166.854 16.8699C165.959 15.9722 165.959 14.5361 166.854 13.6742Z" fill="#F5F5F5"/>
<path d="M184.954 30.8015H181.011C178.538 30.8015 177.391 31.5194 177.391 33.3507C177.391 35.2538 178.753 35.8283 180.904 35.8283C183.592 35.8283 184.954 35.2895 184.954 33.0277V30.8015ZM188.609 33.207C188.609 37.1926 186.28 38.952 180.976 38.952C176.137 38.952 173.7 37.1207 173.7 33.4224C173.7 29.5808 176.281 28.0007 181.011 28.0007H184.954V26.2413C184.954 24.1229 183.556 23.5126 180.725 23.5126C179.291 23.5126 178.037 23.6201 176.961 23.8357C175.922 24.0151 175.636 23.7996 175.636 22.6866V22.184C175.636 21.1426 175.922 20.8195 176.926 20.6401C178.037 20.4606 179.219 20.3528 180.51 20.3528C185.706 20.3528 188.609 21.9686 188.609 26.2413V33.207Z" fill="#FF4F2A"/>
<path d="M192.159 15.0386C192.159 13.7462 192.481 13.4231 193.771 13.4231H194.237C195.528 13.4231 195.85 13.7462 195.85 15.0386V32.8121C195.85 34.7151 196.388 35.3615 197.535 35.3615C198.717 35.3615 198.896 35.541 198.896 36.7978V37.1567C198.896 38.3417 198.61 38.5572 197.427 38.8084C197.284 38.8445 197.104 38.8445 196.925 38.8445C194.058 38.8445 192.159 37.1567 192.159 33.5302V15.0386Z" fill="#FF4F2A"/>
<path d="M201.262 15.0386C201.262 13.7462 201.585 13.4231 202.875 13.4231H203.341C204.631 13.4231 204.954 13.7462 204.954 15.0386V32.8121C204.954 34.7151 205.491 35.3615 206.638 35.3615C207.821 35.3615 208 35.541 208 36.7978V37.1567C208 38.3417 207.713 38.5572 206.531 38.8084C206.387 38.8445 206.208 38.8445 206.029 38.8445C203.162 38.8445 201.262 37.1567 201.262 33.5302V15.0386Z" fill="#FF4F2A"/>
</svg>
